<?xml version="1.0" standalone="no"?>
<!DOCTYPE svg PUBLIC "-//W3C//DTD SVG 20010904//EN"
 "http://www.w3.org/TR/2001/REC-SVG-20010904/DTD/svg10.dtd">
<svg version="1.0" xmlns="http://www.w3.org/2000/svg"
 width="700.000000pt" height="700.000000pt" viewBox="0 0 700.000000 700.000000"
 preserveAspectRatio="xMidYMid meet">
<metadata>
Created by potrace 1.14, written by Peter Selinger 2001-2017
</metadata>
<g transform="translate(0.000000,700.000000) scale(0.100000,-0.100000)"
fill="#000000" stroke="none">
<path d="M397 6558 c-177 -16 -325 -138 -378 -310 -18 -60 -19 -106 -18 -998
0 -1033 -2 -991 65 -1101 66 -109 188 -190 309 -205 33 -4 1448 -7 3145 -7
2495 0 3096 2 3140 13 162 38 295 173 330 335 11 52 10 1915 -1 1945 -4 8 -9
24 -13 35 -54 153 -201 273 -356 291 -83 9 -6119 11 -6223 2z m4535 -1004 c62
-20 150 -103 180 -169 31 -70 32 -200 2 -266 -60 -128 -186 -203 -328 -193
-242 16 -381 295 -249 499 87 134 235 182 395 129z m890 -7 c143 -65 220 -226
181 -377 -25 -100 -85 -171 -183 -218 -76 -36 -186 -37 -262 -1 -72 33 -133
91 -165 158 -36 75 -39 201 -7 272 77 165 274 241 436 166z"/>
<path d="M400 3059 c-85 -10 -132 -26 -196 -67 -99 -64 -169 -163 -194 -275
-7 -32 -10 -352 -9 -975 1 -1019 -1 -985 62 -1091 62 -103 190 -191 302 -207
68 -9 6151 -11 6244 -1 186 19 341 159 380 346 8 37 11 328 11 980 l-1 926
-23 66 c-42 121 -117 205 -231 259 -33 16 -84 32 -113 36 -65 8 -6155 11
-6232 3z m4550 -1012 c64 -30 126 -91 158 -156 36 -74 39 -200 6 -272 -96
-207 -370 -262 -527 -104 -88 88 -116 184 -92 315 21 108 132 216 248 240 60
12 154 1 207 -23z m873 0 c186 -85 247 -311 131 -484 -64 -93 -149 -137 -269
-136 -66 0 -90 5 -137 27 -67 33 -131 98 -161 164 -24 54 -33 177 -15 220 27
67 42 97 54 109 7 7 14 16 16 20 5 12 79 67 108 80 79 38 192 38 273 0z"/>
</g>
</svg>
